<?xml version="1.0" encoding="UTF-8"?>
<svg version="1.1" viewBox="0 0 2000 2000" width="500" height="500" xmlns="http://www.w3.org/2000/svg">
<path transform="translate(1024,558)" d="m0 0 3 1 3 9v7l-8 16-16 26-11 18-14 22-12 19-27 40-16 23-12 18-17 25-23 34-11 16-17 25-32 47-15 22-13 19-30 44-26 38-15 22-19 28-7 10-15 22-9 12-9 10-16 17-11 10v15l12-13 10-8 10-6 16-5 8-1h20l16 3 14 7 8 7 9 13 2 4 12-14 10-8 16-8 11-3 7-1h23l11 1 9-10 12-16 7-10 10-15 15-29 7-16 7-19 7-26 5-27 2-25v-23l-2-25-5-30-3-15-1-14 3-14 7-14 10-13 9-14 7-10h3l8 13 8 20 9 28 6 24 4 23 3 26v52l-4 31-6 28-8 26-8 21-13 29-14 25-15 23-10 14-11 14-11 13-5 7 1 11v128h23l2 1v34l-19 1h-85l-1-1v-32l1-1 17-2 6-3 2-4 1-83 1-4-12 8-17 11-24 13-17 8-3 1v52l18 1 5 1v34l-5 1h-94l-4-1-1-19v-12l1-2 17-2 7-3 2-7 1-27-12 3-28 5-33 3v25l22 1 1 1v34l-54 1h-48l-1-1v-33l18-2 5-2 3-7 2-18-28-3-29-5-26-6 1 40 19 1 5 1v34l-6 1h-96l-3-3v-30l1-1 17-2 6-3 2-3 1-6v-45l-1-5-17-8-19-11 1 4 3 15 1 16-1 15-4 15-8 16-9 11-10 9-15 9-18 7-19 4-8 1h-37l-23-3-20-5-19-7-5-3v-68l1-1 37-3h7l1 33 3 5 9 4 12 2h28l15-3 10-5 7-6 5-8 3-12v-14l-5-12-4-5-11-7-18-8-37-11-19-8-11-6-12-9-7-7-7-11-5-12-3-15v-23l3-16 7-16 8-11 11-11 13-8 2-1-1-8-9-24-7-24-6-28-4-29-2-31 1-30 2-22 5-30 7-28 10-29 14-31 12-22 20-30 10-13 9-11 12-13 7-8h2l1-3 8-7 9-9 14-11 15-12 19-12 17-10 22-12 31-13 33-10 26-6 31-4 26-2h44l27 3 23 4 32 8 29 10 26 11 21 11 19 12 18 13 10 8 6 7-1 5-12 12-8 7-12 11-8 7-6-1-21-13-15-9-23-12-24-10-23-7-24-6-21-4-25-2h-37l-28 3-29 6-24 7-26 10-26 13-13 8-24 16-10 8-15 13-17 17-14 16-13 18-11 18-12 23-10 22-9 28-7 30-4 31v46l3 25 6 29 6 20 11 28 5 9 28 4 21 5 16 6 7 3 1 2v64l-1 1-8 1 6 7 14 11 8 6-1-2v-23l1-8h77l1 1 1 75 19 6 30 7 26 4h6l-1-50-3-4-15-2-10-1v-36l2-1 11 1-11-12-7-8-15-16-12-13-15-15v-2h-2l-3 17-4 8-8 7-9 4-5 1h-12l-10-3-9-6-6-9-2-7v-15l4-10 8-9 10-5 19-2-12-13-7-8-7-7-7-8-9-9-7-8-12-13-11-12-15-16-13-14-9-11-6-10-3-8v-9l5-10 5-6 17-12 23-12 13-5 14-3h19l12 4 12 7 14 12 26 26 8 7 14 13 2 1v2l4 2 14 13 11 9 12 11 11 9 9 8 3 1 2-4 10-11 7-8 9-10 33-36 8-8 7-8 13-13 7-8 10-10 7-8 5-6 22-22 7-8 11-11 7-8 10-10 7-8 16-17 11-11 7-8 14-14 7-8 8-8 7-8 8-8 7-8 13-13 7-8 13-13 7-8 10-10 7-8 9-9 7-8 14-14 8-7 11-10 11-9 13-10 14-8zm-740 566-6 10-3 9v14l4 11 7 9 11 7 15 6 25 8 5 2 4-1-8-8-7-8-9-10-15-20-14-21-6-8zm387 56-12 3-9 6-8 9-4 10-2 9-1 11v12l1 1 17-1 30-5 19-5 6-3 1-1v-11l-3-17-4-9-7-6-11-3zm123 0-15 6-9 8-5 8 9-3 14-9 11-8v-2zm-364 3 1 3 12 8 6 3-1-8-5-5z" fill="#141311"/>
<path transform="translate(1024,558)" d="m0 0 3 1 3 9v7l-8 16-16 26-11 18-14 22-12 19-27 40-16 23-12 18-17 25-23 34-11 16-17 25-32 47-15 22-13 19-30 44-26 38-15 22-19 28-7 10-15 22-9 12-9 10-16 17-10 9-2-1-1-9h-59l-12-13-7-8-15-16-12-13-15-15v-2h-2l-3 17-4 8-8 7-9 4-5 1h-12l-10-3-9-6-6-9-2-7v-15l4-10 8-9 10-5 19-2-12-13-7-8-7-7-7-8-9-9-7-8-12-13-11-12-15-16-13-14-9-11-6-10-3-8v-9l5-10 5-6 17-12 23-12 13-5 14-3h19l12 4 12 7 14 12 26 26 8 7 14 13 2 1v2l4 2 14 13 11 9 12 11 11 9 9 8 3 1 2-4 10-11 7-8 9-10 33-36 8-8 7-8 13-13 7-8 10-10 7-8 5-6 22-22 7-8 11-11 7-8 10-10 7-8 16-17 11-11 7-8 14-14 7-8 8-8 7-8 8-8 7-8 13-13 7-8 13-13 7-8 10-10 7-8 9-9 7-8 14-14 8-7 11-10 11-9 13-10 14-8z" fill="#FDBB0D"/>
<path transform="translate(597,560)" d="m0 0h44l27 3 23 4 32 8 29 10 26 11 21 11 19 12 18 13 10 8 6 7-1 5-12 12-8 7-12 11-8 7-6-1-21-13-15-9-23-12-24-10-23-7-24-6-21-4-25-2h-37l-28 3-29 6-24 7-26 10-26 13-13 8-24 16-10 8-15 13-17 17-14 16-13 18-11 18-12 23-10 22-9 28-7 30-4 31v46l3 25 6 29 6 20 11 28 4 9-30 2-21 5-15 5-7-20-9-27-7-30-4-26-2-21-1-25 2-38 5-33 7-30 11-32 14-31 12-22 20-30 10-13 9-11 12-13 7-8h2l1-3 8-7 9-9 14-11 15-12 19-12 17-10 22-12 31-13 33-10 26-6 31-4z" fill="#FDBB0D"/>
<path transform="translate(1068,1140)" d="m0 0h21l16 3 12 5 11 8 9 9 8 13 6 15 4 16 3 22v40l-4 26-6 20-10 19-9 11-8 8-14 9-14 6-18 4h-26l-17-4-14-6-3-1v60h18l17 1v34l-1 1h-112v-33l1-1 17-2 6-3 2-3v-227l-3-5-2-1-17-1-6-1v-36h73l1 1v24l-1 2 13-13 13-9 14-7 12-3zm-12 42-12 2-14 7-9 9-5 10-1 3-1 104 1 6 17 7 18 3h11l13-4 9-6 7-8 7-15 4-14 3-22v-18l-2-20-4-15-7-14-8-8-10-5-9-2z" fill="#141311"/>
<path transform="translate(1561,1146)" d="m0 0h52l24 1 1 134 2 16 5 12 8 7 11 3h13l10-2 9-4 8-6 7-9 4-10 1-6v-91l-2-6-4-1-16-1-2-2v-34l3-1h44l30 1v228l-3 21-5 16-8 15-7 9-11 9-15 8-16 5-16 3-10 1h-32l-25-3-18-4-12-4-6-3-1-10v-50l1-2 36-3h5l1 23 3 9 6 4 10 3 7 1h25l16-4 9-5 9-8 7-14 4-17 1-27v-20l-5 5-5 6-14 10-13 6-15 4-8 1h-23l-15-3-9-4-9-6-6-5-7-10-5-11-4-16-1-10-1-102-2-6-5-3-13-1-4-1v-35z" fill="#141311"/>
<path transform="translate(311,1069)" d="m0 0h20l28 4 21 5 16 6 7 3 1 2v64l-1 1h-9l-1 1-15 1h-19l-1-27-2-8-5-4-9-2h-32l-13 3-10 6-3 1-7 14-1 4v14l4 11 7 9 14 8 30 10 23 8 19 9 16 11 10 9 7 10 3 5 4 11 2 12 1 16-1 15-4 15-8 16-9 11-10 9-15 9-18 7-19 4-8 1h-37l-23-3-20-5-19-7-5-3v-68l1-1 37-3h7l1 33 3 5 9 4 12 2h28l15-3 10-5 7-6 5-8 3-12v-14l-5-12-4-5-11-7-18-8-37-11-19-8-11-6-12-9-7-7-7-11-5-12-3-15v-23l3-16 7-16 8-11 11-11 13-8 6-4 19-6 14-3z" fill="#131211"/>
<path transform="translate(310,1114)" d="m0 0h32l9 2 6 5 2 8v27l19-1h15l1-2 4 6 13 11 12 9-1-2v-23l1-8h77l1 1 1 75 19 6 30 7 32 5v65l-33-4-28-5-21-5 1 40 19 1 5 1v34l-6 1h-96l-3-3v-30l1-1 17-2 6-3 2-3 1-6v-45l-1-5-17-8-21-12-5-10-9-11-10-8-16-10-22-10-10-10-7-8-9-10-15-20-14-21-5-7 1-3 12-6zm120 69 1 3 12 8 6 3-1-8-5-5z" fill="#FDBB0D"/>
<path transform="translate(1481,1050)" d="m0 0h33l21 4 16 6 8 4 1 4-11 30-4 1-15-6-14-3h-18l-9 3-6 5-4 8-2 8-2 32h64l2 1v35l-1 1-64 1-1 147 34 1 4 2v32l-1 1-33 1h-64l-19-1v-32l1-1 13-1 10-3 2-6v-141h-36l-1-2v-34l1-1h36l2-36 4-18 5-12 7-10 10-9 14-7 11-3z" fill="#141311"/>
<path transform="translate(950,776)" d="m0 0h3l8 13 8 20 9 28 6 24 4 23 3 26v52l-4 31-6 28-8 26-8 21-13 29-14 25-15 23-10 14-11 14-11 13-5 7-2-4-5-15-7-12-9-9-10-6-9-4 2-4 10-12 12-16 10-15 10-17 11-22 8-20 7-21 6-25 3-18 2-25v-23l-2-25-5-30-3-15-1-14 3-14 7-14 10-13 9-14z" fill="#FDBB0D"/>
<path transform="translate(1170,1054)" d="m0 0h78v278h15l10 1v34l-3 1h-94l-7-1v-33l17-2 6-3 3-6v-224l-2-5-6-2-15-1-3-3v-33z" fill="#131211"/>
<path transform="translate(1283,1146)" d="m0 0h77l1 1v185h14l10 1 1 1v33l-5 1h-29l-70-1-1-11v-19l1-3 13-1 8-3 3-1 2-9v-125l-2-9-8-2-15-1-1-5v-31z" fill="#151311"/>
<path transform="translate(448,1271)" d="m0 0 10 3 38 14 5 3 1 40 19 1 5 1v34l-6 1h-96l-3-3v-30l1-1 17-2 6-3 2-3 1-6z" fill="#161411"/>
<path transform="translate(799,1180)" d="m0 0h10l13 4 7 8 4 13 2 20v13l-12 8-17 11-24 13-17 8h-3v-65l3-9 2-3 12-6 13-9 6-4z" fill="#FDBB0D"/>
<path transform="translate(707,1227)" d="m0 0 2 4v64l-12 3-28 5-22 2h-11v-64l37-5 22-5z" fill="#FDBB0D"/>
<path transform="translate(423,1146)" d="m0 0h77l1 1v74l-10-2-16-7-22-12-4-3-3-10-3-2-12-1-6-3-3-4v-23z" fill="#181511"/>
<path transform="translate(1325,1052)" d="m0 0h9l12 3 8 6 5 6 4 9 1 12-2 9-5 8-7 7-10 4-5 1h-12l-10-3-9-7-5-8-2-6-1-9 2-11 5-9 8-7 9-4z" fill="#141311"/>
<path transform="translate(465,1052)" d="m0 0h12l5 3 15 15 6 8 1 10-3 12-6 8-9 6-10 3h-12l-10-3-9-6-6-9-2-7v-15l4-10 8-9 10-5z" fill="#141311"/>
</svg>
